# xmcd
#
# Track frame offsets:
#	220
#	14795
#	27417
#	40242
#	53810
#	67185
#	81442
#	96112
#	109217
#	123875
#	138652
#	149427
#	162795
#	176790
#	191167
#	205227
#
# Disc length: 2911 seconds
#
# Revision: 0
# Processed by: cddbd v1.5.2PL0 Copyright (c) Steve Scherf et al.
# Submitted via: EZCDAudioConverter 1.3.4.1
#
DISCID=f50b5d10
DTITLE=Leadbelly
DYEAR=1935
DGENRE=Blues
TTITLE0=Roberta (Part I)
TTITLE1=Roberta (Part II)
TTITLE2=Packin' Trunk Blues
TTITLE3=C.C. Rider
TTITLE4=You Can't Lose Me, Charlie
TTITLE5=Black Snake Moan
TTITLE6=Alberta
TTITLE7=Baby Don'T You Love Me No More
TTITLE8=Death Letter Blues (Part I)
TTITLE9=Death Letter Blues (Part II)
TTITLE10=Kansas City Papa
TTITLE11=Red River
TTITLE12=Blind Lemon
TTITLE13=Mister Tom Hughes's Town
TTITLE14=Match Box Blues
TTITLE15=Bull Cow
EXTD=
EXTT0=
EXTT1=
EXTT2=
EXTT3=
EXTT4=
EXTT5=
EXTT6=
EXTT7=
EXTT8=
EXTT9=
EXTT10=
EXTT11=
EXTT12=
EXTT13=
EXTT14=
EXTT15=
PLAYORDER=
